0
SECTION
2
HEADER
9
$INSUNITS
70
4
9
$ACADVER
1
AC1014
9
$HANDSEED
5
FFFF
0
ENDSEC
0
SECTION
2
TABLES
0
TABLE
2
VPORT
5
8
100
AcDbSymbolTable
0
ENDTAB
0
TABLE
2
LTYPE
5
5
100
AcDbSymbolTable
0
LTYPE
5
14
100
AcDbSymbolTableRecord
100
AcDbLinetypeTableRecord
2
BYBLOCK
70
0
0
LTYPE
5
15
100
AcDbSymbolTableRecord
100
AcDbLinetypeTableRecord
2
BYLAYER
70
0
0
LTYPE
5
16
100
AcDbSymbolTableRecord
100
AcDbLinetypeTableRecord
2
DASHED
70
0
3
Dashed __ __ __ __ __ __ __ __ __ __ __ __ __ _
72
65
73
2
40
0.75
49
0.5
74
0
49
-0.25
74
0
0
ENDTAB
0
TABLE
2
LAYER
5
2
100
AcDbSymbolTable
70
2
0
LAYER
5
50
100
AcDbSymbolTableRecord
100
AcDbLayerTableRecord
2
0
70
0
62
7
6
CONTINUOUS
0
ENDTAB
0
TABLE
2
STYLE
5
3
100
AcDbSymbolTable
70
1
0
STYLE
5
11
100
AcDbSymbolTableRecord
100
AcDbTextStyleTableRecord
2
STANDARD
70
0
0
ENDTAB
0
TABLE
2
VIEW
5
6
100
AcDbSymbolTable
70
0
0
ENDTAB
0
TABLE
2
UCS
5
7
100
AcDbSymbolTable
70
0
0
ENDTAB
0
TABLE
2
APPID
5
9
100
AcDbSymbolTable
70
2
0
APPID
5
12
100
AcDbSymbolTableRecord
100
AcDbRegAppTableRecord
2
ACAD
70
0
0
ENDTAB
0
TABLE
2
DIMSTYLE
5
A
100
AcDbSymbolTable
70
1
0
ENDTAB
0
TABLE
2
BLOCK_RECORD
5
1
100
AcDbSymbolTable
70
1
0
BLOCK_RECORD
5
1F
100
AcDbSymbolTableRecord
100
AcDbBlockTableRecord
2
*MODEL_SPACE
0
BLOCK_RECORD
5
1B
100
AcDbSymbolTableRecord
100
AcDbBlockTableRecord
2
*PAPER_SPACE
0
ENDTAB
0
ENDSEC
0
SECTION
2
BLOCKS
0
BLOCK
5
20
100
AcDbEntity
100
AcDbBlockBegin
2
*MODEL_SPACE
0
ENDBLK
5
21
100
AcDbEntity
100
AcDbBlockEnd
0
BLOCK
5
1C
100
AcDbEntity
100
AcDbBlockBegin
2
*PAPER_SPACE
0
ENDBLK
5
1D
100
AcDbEntity
100
AcDbBlockEnd
0
ENDSEC
0
SECTION
2
ENTITIES
0
POINT
5
100
100
AcDbEntity
8
0
100
AcDbPoint
10
103.96170699263283
20
72.335787344686821
30
0
0
POINT
5
101
100
AcDbEntity
8
0
100
AcDbPoint
10
106.22282667282113
20
69.396331760442052
30
0
0
LWPOLYLINE
5
102
100
AcDbEntity
8
0
100
AcDbPolyline
90
12
70
1
43
0.0
10
66.304307180070509
20
72.335787344686821
10
100.25319498107314
20
72.335787344686821
42
-0.2328517585428303
10
106.2228266728211
20
69.396331760442052
10
169.95073404792663
20
-13.449947827195077
42
-0.62225505713995977
10
163.98110235617864
20
-25.573452167975219
10
66.304307180070509
20
-25.573452167975201
42
-0.41421356237309537
10
58.772827217558046
20
-18.041972205462748
10
58.772827217558046
20
9.5734548474793346
10
13.583946769116482
20
9.5734548474793346
10
13.583946769116482
20
37.188880329232276
10
58.772827217558046
20
37.188880329232276
10
58.772827217558046
20
64.804307382174372
42
-0.41421356237309509
0
CIRCLE
5
103
100
AcDbEntity
8
0
100
AcDbCircle
10
100.25319498107311
20
64.804307382174343
30
0
40
1.6499999999999999
210
0
220
-0
230
1
0
CIRCLE
5
104
100
AcDbEntity
8
0
100
AcDbCircle
10
52.57733340000393
20
30.03865393285562
30
0
40
1.6500000000000004
210
0
220
-0
230
1
0
CIRCLE
5
105
100
AcDbEntity
8
0
100
AcDbCircle
10
52.57733340000393
20
15.03865393285562
30
0
40
1.6500000000000004
210
0
220
-0
230
1
0
CIRCLE
5
106
100
AcDbEntity
8
0
100
AcDbCircle
10
17.57733340000393
20
15.03865393285562
30
0
40
1.6500000000000004
210
0
220
-0
230
1
0
CIRCLE
5
107
100
AcDbEntity
8
0
100
AcDbCircle
10
17.57733340000393
20
30.03865393285562
30
0
40
1.6500000000000004
210
0
220
-0
230
1
0
LWPOLYLINE
5
108
100
AcDbEntity
8
0
100
AcDbPolyline
90
8
70
1
43
0.0
10
71.32529382174549
20
7.8209948682308026
42
0.65226301762606143
10
79.735804917507181
20
4.1167498937418578
10
112.05680555981907
20
33.691689675574985
42
0.38942584349314718
10
112.64703556689769
20
40.457284235575727
10
99.288266760158848
20
57.823683684336196
42
0.23285175854282997
10
95.30851229899352
20
59.783320740499384
10
76.346280463420456
20
59.783320740499391
42
0.41421356237309509
10
71.32529382174549
20
54.762334098824411
0
LWPOLYLINE
5
109
100
AcDbEntity
8
0
100
AcDbPolyline
90
6
70
1
43
0.0
10
92.111557142638233
20
-4.2957539476238535
42
0.68433177582339755
10
95.50108159672493
20
-13.020985563787802
10
143.58723000740676
20
-13.020985563787768
42
0.62225505713995666
10
147.56698446857209
20
-4.9386493366009887
10
127.7024721787903
20
20.885216640115338
42
0.439443500613039
10
120.33319326353826
20
21.52811202909249
0
CIRCLE
5
110
100
AcDbEntity
8
0
100
AcDbCircle
10
163.98110235617864
20
-18.041972205462766
30
0
40
1.6499999999999961
210
0
220
-0
230
1
0
ENDSEC
0
SECTION
2
OBJECTS
0
DICTIONARY
5
C
100
AcDbDictionary
3
ACAD_GROUP
350
D
3
ACAD_MLINESTYLE
350
17
0
DICTIONARY
5
D
100
AcDbDictionary
0
DICTIONARY
5
1A
330
C
100
AcDbDictionary
0
DICTIONARY
5
17
100
AcDbDictionary
0
ENDSEC
0
EOF
